<svg width="20" height="20" viewBox="0 0 20 20" fill="none" xmlns="http://www.w3.org/2000/svg">
<g clip-path="url(#clip0_5601_4605)">
<path d="M10 11.25C10.6904 11.25 11.25 10.6904 11.25 10C11.25 9.30964 10.6904 8.75 10 8.75C9.30964 8.75 8.75 9.30964 8.75 10C8.75 10.6904 9.30964 11.25 10 11.25Z" fill="black"/>
<path d="M18.0088 9.21875C17.6396 5.40406 14.5959 2.36043 10.7812 1.99117V0H9.21875V1.99117C5.40406 2.36043 2.36043 5.40406 1.99117 9.21875H0V10.7812H1.99117C2.36043 14.5959 5.40406 17.6396 9.21875 18.0088V20H10.7812V18.0088C14.5959 17.6396 17.6396 14.5959 18.0088 10.7812H20V9.21875H18.0088ZM16.4372 10.7812C16.081 13.7335 13.7335 16.081 10.7812 16.4372V14.4531H9.21875V16.4372C6.26652 16.081 3.91898 13.7335 3.56281 10.7812H5.54688V9.21875H3.56281C3.91898 6.26652 6.26652 3.91898 9.21875 3.56281V5.54688H10.7812V3.56281C13.7335 3.91895 16.081 6.26648 16.4372 9.21875H14.4531V10.7812H16.4372Z" fill="black"/>
</g>
<defs>
<clipPath id="clip0_5601_4605">
<rect width="20" height="20" fill="white"/>
</clipPath>
</defs>
</svg>
