<svg width="24" height="24" viewBox="0 0 24 24" fill="none" xmlns="http://www.w3.org/2000/svg">
<path d="M13.6969 12L18.8485 6.84843C19.3172 6.37968 19.3172 5.6203 18.8485 5.15155C18.3797 4.6828 17.6204 4.6828 17.1516 5.15155L12 10.3031L6.84849 5.15155C6.37974 4.6828 5.62036 4.6828 5.15161 5.15155C4.68286 5.6203 4.68286 6.37968 5.15161 6.84843L10.3032 12L5.15161 17.1516C4.68286 17.6203 4.68286 18.3797 5.15161 18.8484C5.38599 19.0828 5.69302 19.2 6.00005 19.2C6.30708 19.2 6.61411 19.0828 6.84849 18.8484L12 13.6969L17.1516 18.8484C17.386 19.0828 17.693 19.2 18 19.2C18.3071 19.2 18.6141 19.0828 18.8485 18.8484C19.3172 18.3797 19.3172 17.6203 18.8485 17.1516L13.6969 12Z" fill="black"/>
</svg>
