<svg width="24" height="24" viewBox="0 0 24 24" fill="none" xmlns="http://www.w3.org/2000/svg">
<path d="M18.999 4L19.1728 4.00488C20.0377 4.04863 20.8583 4.41109 21.4736 5.02637C22.0888 5.64164 22.4513 6.46222 22.4951 7.32715L22.4999 7.50098V16.5C22.4988 17.4279 22.1297 18.3175 21.4736 18.9736C20.8173 19.6299 19.9271 19.999 18.999 20H5.00092C4.07282 19.999 3.18257 19.6299 2.52631 18.9736C1.91103 18.3584 1.54857 17.5378 1.50482 16.6729L1.49994 16.499V7.50098C1.50093 6.57288 1.87004 5.68263 2.52631 5.02637C3.14158 4.41109 3.96216 4.04863 4.82709 4.00488L5.00092 4H18.999ZM21.4999 7.49902C21.4991 6.83651 21.236 6.2009 20.7675 5.73242C20.299 5.26395 19.6634 5.00086 19.0009 5H4.99896C4.33645 5.00086 3.70083 5.26395 3.23236 5.73242C2.76389 6.2009 2.5008 6.83651 2.49994 7.49902V16.501C2.5008 17.1635 2.76389 17.7991 3.23236 18.2676C3.64246 18.6777 4.18078 18.93 4.75287 18.9873L4.99896 19H19.0009C19.6634 18.9991 20.299 18.7361 20.7675 18.2676C21.1776 17.8575 21.43 17.3192 21.4872 16.7471L21.4999 16.501V7.49902Z" fill="black" stroke="black"/>
<path d="M21.062 6.00342C21.1936 6.01989 21.3136 6.08817 21.395 6.19287C21.4764 6.29757 21.513 6.43045 21.4966 6.56201C21.4842 6.66069 21.4425 6.75247 21.3784 6.82666L21.3071 6.89502L14.7632 11.9849C13.9735 12.5998 13.0004 12.9332 11.9995 12.9331C11.0613 12.9334 10.1482 12.6405 9.38721 12.0972L9.23682 11.9849L2.69287 6.89502C2.58817 6.81357 2.51989 6.69363 2.50342 6.56201C2.48698 6.43039 2.52357 6.29759 2.60498 6.19287C2.68646 6.08813 2.80631 6.01986 2.93799 6.00342C3.0368 5.9911 3.13638 6.00829 3.22412 6.05225L3.30713 6.10498L9.85107 11.1948C10.465 11.6734 11.2211 11.933 11.9995 11.9331C12.6809 11.9331 13.3457 11.7344 13.9126 11.3638L14.1489 11.1948L20.6929 6.10498C20.7976 6.02357 20.9304 5.98698 21.062 6.00342Z" fill="black" stroke="black"/>
</svg>
