<svg width="24" height="24" viewBox="0 0 24 24" fill="none" xmlns="http://www.w3.org/2000/svg">
<path d="M9.70491 13.2399C9.62955 13.2399 8.04867 13.2404 7.31955 13.2397C6.94419 13.2394 6.81027 13.1045 6.81027 12.7268C6.80979 11.7565 6.80955 10.7861 6.81027 9.81581C6.81051 9.44285 6.95211 9.30053 7.32267 9.30029C8.05179 9.29981 9.62403 9.30005 9.70491 9.30005C9.70491 9.23357 9.70467 7.83269 9.70491 7.18757C9.70539 6.23381 9.87555 5.32085 10.3601 4.48493C10.8562 3.62933 11.5781 3.04325 12.5033 2.70437C13.0959 2.48717 13.711 2.40053 14.3398 2.40005C15.1265 2.39957 15.9132 2.40029 16.7002 2.40173C17.0383 2.40221 17.1883 2.55173 17.1891 2.89229C17.1905 3.80501 17.1905 4.71773 17.1891 5.63021C17.1886 5.97437 17.0448 6.11261 16.699 6.11645C16.0541 6.12341 15.4087 6.11909 14.7646 6.14501C14.1139 6.14501 13.7717 6.46277 13.7717 7.13621C13.7561 7.84853 13.7652 8.56157 13.7652 9.29981C13.8262 9.29981 15.6778 9.29957 16.5432 9.29981C16.9363 9.29981 17.0707 9.43493 17.0707 9.83021C17.0707 10.7953 17.0705 11.7605 17.0698 12.7256C17.0695 13.1151 16.9433 13.2394 16.5478 13.2397C15.6823 13.2401 13.8379 13.2399 13.7573 13.2399V21.0507C13.7573 21.4671 13.6263 21.5998 13.2154 21.5998C12.2136 21.5998 11.2116 21.6001 10.2099 21.5998C9.84675 21.5998 9.70515 21.4587 9.70515 21.0956C9.70491 18.5518 9.70491 13.3292 9.70491 13.2399Z" fill="black"/>
</svg>
