<svg width="24" height="24" viewBox="0 0 24 24" fill="none" xmlns="http://www.w3.org/2000/svg">
<g clip-path="url(#clip0_5597_4729)">
<mask id="mask0_5597_4729" style="mask-type:luminance" maskUnits="userSpaceOnUse" x="0" y="0" width="24" height="24">
<path d="M0 0H24V24H0V0Z" fill="white"/>
</mask>
<g mask="url(#mask0_5597_4729)">
<path fill-rule="evenodd" clip-rule="evenodd" d="M8.95624 1.71908e-07H15.0438C16.4068 -7.92809e-06 17.4908 -1.43647e-05 18.3654 0.0714424C19.261 0.144616 20.0247 0.297677 20.7239 0.653961C21.8529 1.2292 22.7708 2.14709 23.346 3.27606C23.7023 3.9753 23.8554 4.73898 23.9286 5.63458C24 6.50916 24 7.59318 24 8.95622V15.0438C24 16.4068 24 17.4908 23.9286 18.3654C23.8554 19.261 23.7023 20.0247 23.346 20.7239C22.7708 21.8529 21.8529 22.7708 20.7239 23.346C20.0247 23.7023 19.261 23.8554 18.3654 23.9286C17.4908 24 16.4068 24 15.0438 24H8.95622C7.59318 24 6.50916 24 5.63458 23.9286C4.73898 23.8554 3.9753 23.7023 3.27606 23.346C2.14709 22.7708 1.2292 21.8529 0.653961 20.7239C0.297677 20.0247 0.144616 19.261 0.0714424 18.3654C-1.43647e-05 17.4908 -7.92809e-06 16.4068 1.71908e-07 15.0438V8.95624C-7.92809e-06 7.5932 -1.43647e-05 6.50917 0.0714424 5.63458C0.144616 4.73898 0.297677 3.9753 0.653961 3.27606C1.2292 2.14708 2.14708 1.2292 3.27606 0.653961C3.9753 0.297677 4.73898 0.144616 5.63458 0.0714424C6.50917 -1.43647e-05 7.5932 -7.92809e-06 8.95624 1.71908e-07ZM5.79744 2.0648C5.02552 2.12787 4.55435 2.24729 4.18404 2.43597C3.43139 2.81947 2.81947 3.43139 2.43597 4.18404C2.24729 4.55435 2.12787 5.02552 2.0648 5.79744C2.00078 6.58104 2 7.58337 2 9V15C2 16.4166 2.00078 17.419 2.0648 18.2026C2.12787 18.9745 2.24729 19.4457 2.43597 19.816C2.81947 20.5686 3.43139 21.1805 4.18404 21.564C4.55435 21.7527 5.02552 21.8721 5.79744 21.9352C6.58104 21.9992 7.58337 22 9 22H15C16.4166 22 17.419 21.9992 18.2026 21.9352C18.9745 21.8721 19.4457 21.7527 19.816 21.564C20.5686 21.1805 21.1805 20.5686 21.564 19.816C21.7527 19.4457 21.8721 18.9745 21.9352 18.2026C21.9992 17.419 22 16.4166 22 15V9C22 7.58337 21.9992 6.58104 21.9352 5.79744C21.8721 5.02552 21.7527 4.55435 21.564 4.18404C21.1805 3.43139 20.5686 2.81947 19.816 2.43597C19.4457 2.24729 18.9745 2.12787 18.2026 2.0648C17.419 2.00078 16.4166 2 15 2H9C7.58337 2 6.58104 2.00078 5.79744 2.0648ZM14 7C13.4477 7 13 6.55229 13 6C13 5.44772 13.4477 5 14 5H18C18.5523 5 19 5.44772 19 6V10C19 10.5523 18.5523 11 18 11C17.4477 11 17 10.5523 17 10V8.41421L14.7071 10.7071C14.3166 11.0976 13.6834 11.0976 13.2929 10.7071C12.9024 10.3166 12.9024 9.68342 13.2929 9.29289L15.5858 7H14ZM5 14C5 13.4477 5.44772 13 6 13C6.55229 13 7 13.4477 7 14V15.5858L9.29289 13.2929C9.68342 12.9024 10.3166 12.9024 10.7071 13.2929C11.0976 13.6834 11.0976 14.3166 10.7071 14.7071L8.41421 17H10C10.5523 17 11 17.4477 11 18C11 18.5523 10.5523 19 10 19H6C5.73478 19 5.48043 18.8946 5.29289 18.7071C5.10536 18.5196 5 18.2652 5 18V14Z" fill="black"/>
</g>
</g>
<defs>
<clipPath id="clip0_5597_4729">
<rect width="24" height="24" fill="white"/>
</clipPath>
</defs>
</svg>
