<svg width="16" height="16" viewBox="0 0 16 16" fill="none" xmlns="http://www.w3.org/2000/svg">
<path d="M12.6666 11.6667C12.67 11.6268 12.67 11.5866 12.6666 11.5467C12.6666 11.1931 12.5262 10.854 12.2761 10.6039C12.0261 10.3539 11.6869 10.2134 11.3333 10.2134C10.9797 10.2134 10.6406 10.3539 10.3905 10.6039C10.1405 10.854 9.99998 11.1931 9.99998 11.5467C9.99667 11.5866 9.99667 11.6268 9.99998 11.6667C9.99998 12.0203 10.1405 12.3595 10.3905 12.6095C10.6406 12.8596 10.9797 13 11.3333 13C11.6869 13 12.0261 12.8596 12.2761 12.6095C12.5262 12.3595 12.6666 12.0203 12.6666 11.6667Z" fill="black"/>
<path d="M7.33333 11.6667C7.33664 11.6268 7.33664 11.5866 7.33333 11.5467C7.33333 11.1931 7.19286 10.854 6.94281 10.6039C6.69276 10.3539 6.35362 10.2134 6 10.2134C5.64638 10.2134 5.30724 10.3539 5.05719 10.6039C4.80714 10.854 4.66667 11.1931 4.66667 11.5467C4.66336 11.5866 4.66336 11.6268 4.66667 11.6667C4.66667 12.0203 4.80714 12.3595 5.05719 12.6095C5.30724 12.8596 5.64638 13 6 13C6.35362 13 6.69276 12.8596 6.94281 12.6095C7.19286 12.3595 7.33333 12.0203 7.33333 11.6667Z" fill="black"/>
<path d="M2.33331 8.50002H1.33331C1.24151 8.4998 1.15147 8.52519 1.07331 8.57335C1.0054 8.61522 0.948489 8.67273 0.907339 8.74109C0.866188 8.80944 0.841992 8.88665 0.836772 8.96626C0.831551 9.04587 0.845458 9.12558 0.87733 9.19872C0.909202 9.27186 0.958114 9.33631 1.01998 9.38669C1.10724 9.46119 1.21858 9.50147 1.33331 9.50002H2.99998C3.13259 9.50002 3.25977 9.5527 3.35353 9.64647C3.4473 9.74024 3.49998 9.86741 3.49998 10C3.49998 10.1326 3.4473 10.2598 3.35353 10.3536C3.25977 10.4473 3.13259 10.5 2.99998 10.5H2.33331C2.20071 10.5 2.07353 10.5527 1.97976 10.6465C1.88599 10.7402 1.83331 10.8674 1.83331 11C1.83331 11.1326 1.88599 11.2598 1.97976 11.3536C2.07353 11.4473 2.20071 11.5 2.33331 11.5H4.17331C4.20199 11.161 4.32689 10.8372 4.53331 10.5667C4.70584 10.3409 4.92764 10.1574 5.18181 10.0303C5.43598 9.90326 5.71582 9.83589 5.99998 9.83335C6.45795 9.83159 6.89988 10.0019 7.2382 10.3106C7.57651 10.6193 7.78653 11.0438 7.82665 11.5H9.50665C9.54577 11.0425 9.75516 10.6163 10.0934 10.3058C10.4317 9.99521 10.8741 9.82289 11.3333 9.82289C11.7925 9.82289 12.235 9.99521 12.5732 10.3058C12.9115 10.6163 13.1209 11.0425 13.16 11.5H14.0666C14.2226 11.5032 14.3747 11.4515 14.4966 11.3541C14.6184 11.2566 14.7021 11.1195 14.7333 10.9667L15.1733 8.76669C15.1699 8.75132 15.1699 8.73539 15.1733 8.72002C15.1828 8.66263 15.1828 8.60408 15.1733 8.54669L13.92 4.85335C13.8517 4.65721 13.7236 4.48741 13.5538 4.36783C13.384 4.24824 13.181 4.18489 12.9733 4.18669H11.7733L11.8466 3.65335C11.8646 3.51204 11.8523 3.36853 11.8107 3.23232C11.769 3.0961 11.6989 2.97027 11.605 2.86315C11.5111 2.75603 11.3956 2.67005 11.266 2.6109C11.1364 2.55175 10.9958 2.52077 10.8533 2.52002H3.33331C3.20071 2.52002 3.07353 2.5727 2.97976 2.66647C2.88599 2.76023 2.83331 2.88741 2.83331 3.02002C2.83331 3.15263 2.88599 3.2798 2.97976 3.37357C3.07353 3.46734 3.20071 3.52002 3.33331 3.52002H4.16665C4.29925 3.52002 4.42643 3.5727 4.5202 3.66647C4.61397 3.76023 4.66665 3.88741 4.66665 4.02002C4.66665 4.15263 4.61397 4.2798 4.5202 4.37357C4.42643 4.46734 4.29925 4.52002 4.16665 4.52002H1.33331C1.20124 4.52175 1.07507 4.57498 0.981669 4.66838C0.888273 4.76177 0.83504 4.88795 0.833314 5.02002C0.833129 5.14637 0.881429 5.26797 0.968255 5.35976C1.05508 5.45155 1.17382 5.50652 1.29998 5.51335H2.99998C3.13259 5.51335 3.25977 5.56603 3.35353 5.6598C3.4473 5.75357 3.49998 5.88075 3.49998 6.01335C3.49998 6.14596 3.4473 6.27314 3.35353 6.36691C3.25977 6.46068 3.13259 6.51335 2.99998 6.51335H1.99998H1.89331C1.78217 6.53762 1.68262 6.59907 1.61111 6.68755C1.53959 6.77603 1.5004 6.88625 1.49998 7.00002C1.49998 7.13263 1.55266 7.25981 1.64643 7.35357C1.74019 7.44734 1.86737 7.50002 1.99998 7.50002H2.33331C2.46592 7.50002 2.5931 7.5527 2.68687 7.64647C2.78063 7.74024 2.83331 7.86741 2.83331 8.00002C2.83331 8.13263 2.78063 8.25981 2.68687 8.35357C2.5931 8.44734 2.46592 8.50002 2.33331 8.50002ZM11.6666 5.16669H12.88C12.915 5.16722 12.949 5.17833 12.9775 5.19856C13.0061 5.21878 13.0279 5.24719 13.04 5.28002L14 8.16669H11.2666L11.6666 5.16669Z" fill="black"/>
</svg>
