<svg width="24" height="24" viewBox="0 0 24 24" fill="none" xmlns="http://www.w3.org/2000/svg">
<g clip-path="url(#clip0_5601_4649)">
<path d="M23.9696 7.05607C23.9134 5.78085 23.7071 4.90416 23.4117 4.14449C23.107 3.33812 22.6381 2.61617 22.0239 2.01602C21.4237 1.40652 20.697 0.932921 19.9 0.632936C19.1359 0.337529 18.2638 0.131312 16.9886 0.0750879C15.7039 0.0141019 15.296 0 12.0376 0C8.77911 0 8.37126 0.0141019 7.09128 0.0703262C5.81607 0.126551 4.93937 0.332951 4.17989 0.628174C3.37333 0.932922 2.65139 1.40176 2.05124 2.01602C1.44174 2.61617 0.968322 3.34288 0.668153 4.13991C0.372747 4.90416 0.16653 5.77609 0.110305 7.0513C0.0493192 8.33604 0.0352173 8.7439 0.0352173 12.0023C0.0352173 15.2608 0.0493192 15.6686 0.105544 16.9486C0.161768 18.2238 0.368168 19.1005 0.663575 19.8602C0.968322 20.6666 1.44174 21.3885 2.05124 21.9887C2.65139 22.5982 3.37809 23.0718 4.17513 23.3718C4.93937 23.6672 5.81131 23.8734 7.0867 23.9296C8.3665 23.986 8.77453 23.9999 12.033 23.9999C15.2914 23.9999 15.6993 23.986 16.9793 23.9296C18.2545 23.8734 19.1312 23.6672 19.8907 23.3718C21.5036 22.7482 22.7788 21.4729 23.4024 19.8602C23.6976 19.096 23.904 18.2238 23.9602 16.9486C24.0165 15.6686 24.0306 15.2608 24.0306 12.0023C24.0306 8.7439 24.0258 8.33604 23.9696 7.05607ZM21.8083 16.8549C21.7567 18.027 21.5598 18.6599 21.3957 19.0819C20.9924 20.1274 20.1626 20.9572 19.1171 21.3605C18.6951 21.5246 18.0576 21.7215 16.8901 21.7729C15.6242 21.8293 15.2445 21.8433 12.0423 21.8433C8.8401 21.8433 8.45569 21.8293 7.19439 21.7729C6.02229 21.7215 5.38935 21.5246 4.96739 21.3605C4.44709 21.1682 3.97349 20.8634 3.58907 20.4649C3.19056 20.0758 2.88581 19.6069 2.69351 19.0866C2.52942 18.6647 2.33254 18.027 2.28108 16.8596C2.22467 15.5937 2.21075 15.2139 2.21075 12.0117C2.21075 8.80946 2.22467 8.42505 2.28108 7.16394C2.33254 5.99183 2.52942 5.3589 2.69351 4.93694C2.88581 4.41645 3.19056 3.94303 3.59383 3.55843C3.98283 3.15992 4.45167 2.85517 4.97216 2.66306C5.39411 2.49896 6.03181 2.30209 7.19915 2.25044C8.46503 2.19422 8.84486 2.18011 12.0469 2.18011C15.2539 2.18011 15.6335 2.19422 16.8948 2.25044C18.0669 2.30209 18.6999 2.49896 19.1218 2.66306C19.6421 2.85517 20.1157 3.15992 20.5002 3.55843C20.8987 3.94761 21.2034 4.41645 21.3957 4.93694C21.5598 5.3589 21.7567 5.99641 21.8083 7.16394C21.8646 8.42981 21.8787 8.80946 21.8787 12.0117C21.8787 15.2139 21.8646 15.589 21.8083 16.8549Z" fill="black"/>
<path d="M12.0445 5.83691C8.6408 5.83691 5.87921 8.59832 5.87921 12.0022C5.87921 15.406 8.6408 18.1674 12.0445 18.1674C15.4483 18.1674 18.2097 15.406 18.2097 12.0022C18.2097 8.59832 15.4483 5.83691 12.0445 5.83691ZM12.0445 16.0014C9.83634 16.0014 8.04522 14.2105 8.04522 12.0022C8.04522 9.79386 9.83634 8.00293 12.0445 8.00293C14.2528 8.00293 16.0437 9.79386 16.0437 12.0022C16.0437 14.2105 14.2528 16.0014 12.0445 16.0014Z" fill="black"/>
<path d="M19.893 5.59312C19.893 6.38795 19.2485 7.03242 18.4535 7.03242C17.6587 7.03242 17.0142 6.38795 17.0142 5.59312C17.0142 4.7981 17.6587 4.15381 18.4535 4.15381C19.2485 4.15381 19.893 4.7981 19.893 5.59312Z" fill="black"/>
</g>
<defs>
<clipPath id="clip0_5601_4649">
<rect width="24" height="24" fill="white"/>
</clipPath>
</defs>
</svg>
