<svg width="12" height="12" viewBox="0 0 12 12" fill="none" xmlns="http://www.w3.org/2000/svg">
<g clip-path="url(#clip0_5601_4614)">
<path d="M9.55226 1.47305C8.60702 0.523753 7.34774 0.00094489 6.00636 0.00094489H6.00057C3.29944 -0.0543404 0.929721 2.32445 0.985335 5.02459C1.05604 6.93122 2.89025 9.35259 4.31862 11.2129C4.7381 11.714 5.34931 12 6.00594 12C6.68558 12 7.31661 11.6937 7.73719 11.1598C8.79682 9.84301 11.0849 6.67591 11.0158 5.02455C11.0159 3.68221 10.4961 2.42094 9.55226 1.47305ZM7.00079 10.5797C6.51639 11.2187 5.49742 11.2198 5.01284 10.5808C3.07603 8.11459 1.92272 6.06074 1.92272 5.02457C1.92272 2.77144 3.75204 0.938404 6.00057 0.938404H6.00636C8.2517 0.938404 10.0784 2.77147 10.0784 5.02457C10.0784 6.07201 8.95666 8.09678 7.00079 10.5797ZM6.02691 7.00821C4.92849 7.00821 4.03486 6.11457 4.03486 5.01616C4.14428 2.37343 7.90994 2.3742 8.01896 5.01618C8.01896 6.1146 7.12533 7.00821 6.02691 7.00821ZM6.02691 3.96154C5.4454 3.96154 4.9723 4.43464 4.9723 5.01616C5.03023 6.41526 7.0238 6.41483 7.08153 5.01616C7.08153 4.43464 6.60845 3.96154 6.02691 3.96154Z" fill="black"/>
</g>
<defs>
<clipPath id="clip0_5601_4614">
<rect width="12" height="12" fill="white"/>
</clipPath>
</defs>
</svg>
