<svg width="20" height="20" viewBox="0 0 20 20" fill="none" xmlns="http://www.w3.org/2000/svg">
<path d="M11.2969 4.96094V8.68359H15.0391C15.3047 8.68359 15.4961 8.89844 15.6133 9.32422C15.6719 9.54687 15.7031 9.75781 15.7031 9.96484C15.7031 10.1719 15.6719 10.3867 15.6133 10.6055C15.4961 11.0352 15.3047 11.2461 15.0391 11.2461H11.2969V15.0352C11.2969 15.3008 11.082 15.4922 10.6562 15.6094C10.4492 15.668 10.2344 15.6992 10.0156 15.6992L9.375 15.6094C8.94531 15.4922 8.73438 15.3008 8.73438 15.0352V11.2461H4.96094C4.69531 11.2461 4.50391 11.0312 4.38672 10.6055C4.32813 10.3828 4.29688 10.1719 4.29688 9.96484C4.29688 9.75781 4.32813 9.54297 4.38672 9.32422C4.50391 8.89453 4.69531 8.68359 4.96094 8.68359H8.72656V4.96094C8.72656 4.69531 8.94141 4.50391 9.36719 4.38672C9.57422 4.32813 9.78906 4.29688 10.0078 4.29688L10.6484 4.38672C11.082 4.50391 11.2969 4.69531 11.2969 4.96094Z" fill="black"/>
</svg>
