<svg width="20" height="20" viewBox="0 0 20 20" fill="none" xmlns="http://www.w3.org/2000/svg">
<g clip-path="url(#clip0_5597_4735)">
<path d="M18.5259 3.33328C18.5259 4.8291 17.3135 6.04172 15.8177 6.04172C14.3218 6.04172 13.1094 4.8291 13.1094 3.33328C13.1094 1.83762 14.3218 0.625 15.8177 0.625C17.3135 0.625 18.5259 1.83762 18.5259 3.33328Z" fill="black"/>
<path d="M15.8177 6.66672C13.9793 6.66672 12.4844 5.17166 12.4844 3.33328C12.4844 1.49506 13.9793 0 15.8177 0C17.656 0 19.1509 1.49506 19.1509 3.33328C19.1509 5.17166 17.656 6.66672 15.8177 6.66672ZM15.8177 1.25C14.6685 1.25 13.7344 2.18506 13.7344 3.33328C13.7344 4.48166 14.6685 5.41672 15.8177 5.41672C16.9668 5.41672 17.9009 4.48166 17.9009 3.33328C17.9009 2.18506 16.9668 1.25 15.8177 1.25Z" fill="black"/>
<path d="M18.5259 16.6674C18.5259 18.1631 17.3135 19.3757 15.8177 19.3757C14.3218 19.3757 13.1094 18.1631 13.1094 16.6674C13.1094 15.1716 14.3218 13.959 15.8177 13.959C17.3135 13.959 18.5259 15.1716 18.5259 16.6674Z" fill="black"/>
<path d="M15.8177 20.0007C13.9793 20.0007 12.4844 18.5056 12.4844 16.6674C12.4844 14.829 13.9793 13.334 15.8177 13.334C17.656 13.334 19.1509 14.829 19.1509 16.6674C19.1509 18.5056 17.656 20.0007 15.8177 20.0007ZM15.8177 14.584C14.6685 14.584 13.7344 15.519 13.7344 16.6674C13.7344 17.8156 14.6685 18.7507 15.8177 18.7507C16.9668 18.7507 17.9009 17.8156 17.9009 16.6674C17.9009 15.519 16.9668 14.584 15.8177 14.584Z" fill="black"/>
<path d="M6.86203 9.9993C6.86203 11.4951 5.64941 12.7076 4.15359 12.7076C2.65793 12.7076 1.44531 11.4951 1.44531 9.9993C1.44531 8.50348 2.65793 7.29102 4.15359 7.29102C5.64941 7.29102 6.86203 8.50348 6.86203 9.9993Z" fill="black"/>
<path d="M4.15359 13.3326C2.31537 13.3326 0.820312 11.8377 0.820312 9.9993C0.820312 8.16092 2.31537 6.66602 4.15359 6.66602C5.99197 6.66602 7.48703 8.16092 7.48703 9.9993C7.48703 11.8377 5.99197 13.3326 4.15359 13.3326ZM4.15359 7.91602C3.00446 7.91602 2.07031 8.85092 2.07031 9.9993C2.07031 11.1477 3.00446 12.0826 4.15359 12.0826C5.30289 12.0826 6.23703 11.1477 6.23703 9.9993C6.23703 8.85092 5.30289 7.91602 4.15359 7.91602Z" fill="black"/>
<path d="M6.12323 9.5995C5.83316 9.5995 5.55148 9.44859 5.39813 9.17866C5.17062 8.77949 5.3107 8.2703 5.70987 8.04188L13.4423 3.63362C13.8414 3.40443 14.3506 3.5445 14.579 3.9452C14.8065 4.34437 14.6665 4.85356 14.2673 5.08198L6.53476 9.49024C6.40475 9.5644 6.26315 9.5995 6.12323 9.5995Z" fill="black"/>
<path d="M13.854 16.4743C13.7139 16.4743 13.5723 16.4392 13.4423 16.3651L5.70975 11.9568C5.31058 11.7293 5.17066 11.2201 5.39817 10.82C5.62476 10.4201 6.13471 10.2793 6.53479 10.5085L14.2673 14.9167C14.6665 15.1442 14.8064 15.6534 14.5789 16.0535C14.4248 16.3234 14.1431 16.4743 13.854 16.4743Z" fill="black"/>
</g>
<defs>
<clipPath id="clip0_5597_4735">
<rect width="20" height="20" fill="white"/>
</clipPath>
</defs>
</svg>
