<svg width="28" height="28" viewBox="0 0 28 28" fill="none" xmlns="http://www.w3.org/2000/svg">
<path fill-rule="evenodd" clip-rule="evenodd" d="M18.9557 9.56576C18.9557 10.0488 18.5637 10.4408 18.0807 10.4408C17.5977 10.4408 17.2057 10.0488 17.2057 9.56576V7.81576C17.2057 6.04359 15.7696 4.60742 13.9974 4.60742C12.2252 4.60742 10.7891 6.04359 10.7891 7.81576V9.56576C10.7891 10.0488 10.3971 10.4408 9.91406 10.4408C9.43106 10.4408 9.03906 10.0488 9.03906 9.56576V7.81576C9.03906 5.07759 11.2592 2.85742 13.9974 2.85742C16.7356 2.85742 18.9557 5.07759 18.9557 7.81576V9.56576Z" fill="black"/>
<path fill-rule="evenodd" clip-rule="evenodd" d="M22.5626 11.1414L23.4959 22.3414C23.5437 23.0671 23.2894 23.7787 22.7936 24.3096C22.2966 24.8404 21.6024 25.1414 20.8767 25.1414H7.11706C6.3914 25.1414 5.69723 24.8404 5.20023 24.3096C4.7044 23.7787 4.45006 23.0671 4.4979 22.3414L5.43123 11.1414C5.5234 9.76241 6.66906 8.69141 8.0504 8.69141H19.9434C21.3247 8.69141 22.4704 9.76241 22.5626 11.1414ZM16.8972 13.8574C16.3816 14.9412 15.2767 15.6914 13.9969 15.6914C12.7171 15.6914 11.6122 14.9412 11.0966 13.8574C10.8901 13.4211 10.3674 13.2356 9.93106 13.4432C9.49473 13.6497 9.30923 14.1724 9.51573 14.6087C10.3114 16.2841 12.0194 17.4414 13.9969 17.4414C15.9744 17.4414 17.6824 16.2841 18.4781 14.6087C18.6846 14.1724 18.4991 13.6497 18.0627 13.4432C17.6264 13.2356 17.1037 13.4211 16.8972 13.8574Z" fill="black"/>
</svg>
