<svg width="16" height="16" viewBox="0 0 16 16" fill="none" xmlns="http://www.w3.org/2000/svg">
<path d="M7.38774 2.75517C7.61913 2.21786 8.38095 2.21786 8.61234 2.75517L9.64601 5.15545C9.74253 5.37957 9.95377 5.53305 10.1967 5.55558L12.799 5.79693C13.3815 5.85096 13.6169 6.5755 13.1774 6.9616L11.214 8.6864C11.0307 8.84745 10.95 9.09579 11.0036 9.33383L11.5782 11.8833C11.7069 12.454 11.0905 12.9018 10.5875 12.6031L8.34041 11.2688C8.1306 11.1442 7.86948 11.1442 7.65967 11.2688L5.41257 12.6031C4.90955 12.9018 4.29321 12.454 4.42184 11.8833L4.99643 9.33383C5.05008 9.09579 4.96939 8.84745 4.78607 8.6864L2.82269 6.9616C2.38318 6.5755 2.6186 5.85096 3.20112 5.79693L5.80334 5.55558C6.04631 5.53305 6.25756 5.37957 6.35407 5.15545L7.38774 2.75517Z" fill="black"/>
</svg>
