<svg width="24" height="24" viewBox="0 0 24 24" fill="none" xmlns="http://www.w3.org/2000/svg">
<mask id="path-1-inside-1_5601_4666" fill="white">
<path d="M8 5.92686L8.92289 7C10.6227 5.02373 13.3773 5.02373 15.0763 7L16 5.92686C13.7903 3.35771 10.2097 3.35771 8 5.92686Z"/>
</mask>
<path d="M8 5.92686L8.92289 7C10.6227 5.02373 13.3773 5.02373 15.0763 7L16 5.92686C13.7903 3.35771 10.2097 3.35771 8 5.92686Z" fill="black"/>
<path d="M8 5.92686L4.11827 2.58822L1.2469 5.92667L4.11807 9.26528L8 5.92686ZM8.92289 7L5.04096 10.3384L8.92259 14.852L12.8046 10.3387L8.92289 7ZM15.0763 7L11.1939 10.3378L15.0741 14.8511L18.9569 10.34L15.0763 7ZM16 5.92686L19.8805 9.26691L22.7543 5.92808L19.8817 2.58822L16 5.92686ZM8 5.92686L4.11807 9.26528L5.04096 10.3384L8.92289 7L12.8048 3.66158L11.8819 2.58845L8 5.92686ZM8.92289 7L12.8046 10.3387C12.7335 10.4213 12.4555 10.6378 11.9999 10.6378C11.5442 10.6378 11.2655 10.4212 11.1939 10.3378L15.0763 7L18.9588 3.66217C15.2163 -0.690875 8.78341 -0.689485 5.04121 3.66129L8.92289 7ZM15.0763 7L18.9569 10.34L19.8805 9.26691L16 5.92686L12.1195 2.58682L11.1958 3.65995L15.0763 7ZM16 5.92686L19.8817 2.58822C15.6292 -2.35607 8.37081 -2.35607 4.11827 2.58822L8 5.92686L11.8817 9.26551C11.9847 9.14585 12.0513 9.11453 12.0554 9.11256C12.0607 9.1101 12.0394 9.12 12 9.12C11.9606 9.12 11.9393 9.1101 11.9446 9.11256C11.9487 9.11453 12.0153 9.14585 12.1183 9.26551L16 5.92686Z" fill="black" mask="url(#path-1-inside-1_5601_4666)"/>
<path d="M21.1666 10.1666C21.1666 5.10355 17.0641 1 12 1C6.93725 1 2.83343 5.10355 2.83343 10.1666C1.82088 10.1666 1 10.9875 1 12V17.5C1 18.5125 1.82088 19.3334 2.83343 19.3334H5.58342C6.0897 19.3334 6.5 18.9234 6.5 18.4166V13.8334C6.5 13.3293 6.2712 12.5728 5.99152 12.154L4.66685 10.1668C4.66685 6.1161 7.9498 2.83343 12.0003 2.83343C16.0519 2.83343 19.3337 6.1161 19.3337 10.1668L18.0087 12.154C17.7291 12.5728 17.5 13.3293 17.5 13.8334V18.6729C16.1564 20.1991 14.1934 21.1666 12 21.1666H10.1666V23H12C14.9969 23 17.6485 21.556 19.3208 19.3334H21.1666C22.1791 19.3334 23 18.5125 23 17.5V12C23 10.9875 22.1791 10.1666 21.1666 10.1666Z" fill="black"/>
</svg>
