<svg width="24" height="24" viewBox="0 0 24 24" fill="none" xmlns="http://www.w3.org/2000/svg">
<path d="M22.515 6.01807C21.1453 6.01807 19.8816 5.56432 18.8667 4.79885C17.7028 3.92135 16.8666 2.63416 16.5713 1.15057C16.4981 0.784004 16.4588 0.405723 16.455 0.0180664H12.5424V10.7093L12.5377 16.5654C12.5377 18.131 11.5181 19.4585 10.1049 19.9254C9.69471 20.0609 9.25174 20.1251 8.79049 20.0998C8.20174 20.0674 7.65002 19.8898 7.17049 19.6029C6.15002 18.9926 5.45815 17.8854 5.4394 16.6188C5.40987 14.6393 7.01018 13.0254 8.9883 13.0254C9.37877 13.0254 9.75377 13.0892 10.1049 13.2049V10.2828V9.23229C9.73455 9.17744 9.35768 9.14885 8.97659 9.14885C6.81143 9.14885 4.78643 10.0488 3.33893 11.6703C2.24487 12.8956 1.58862 14.4588 1.48737 16.0981C1.35471 18.2515 2.14268 20.2985 3.6708 21.8088C3.89533 22.0306 4.13112 22.2363 4.37768 22.4262C5.68783 23.4345 7.28955 23.981 8.97659 23.981C9.35768 23.981 9.73455 23.9529 10.1049 23.8981C11.6808 23.6646 13.1349 22.9432 14.2824 21.8088C15.6924 20.4153 16.4714 18.5651 16.4799 16.5959L16.4597 7.85088C17.1324 8.36979 17.8678 8.79916 18.6572 9.13244C19.8849 9.65041 21.1866 9.91291 22.5263 9.91244V7.07135V6.01713C22.5272 6.01807 22.516 6.01807 22.515 6.01807Z" fill="black"/>
</svg>
