<svg width="24" height="24" viewBox="0 0 24 24" fill="none" xmlns="http://www.w3.org/2000/svg">
<path d="M11.6084 4.00952C10.2744 4.07475 8.97817 4.47015 7.83773 5.15967C6.69729 5.84919 5.74895 6.8109 5.07914 7.95714C4.40934 9.10338 4.03937 10.3977 4.00297 11.7221C3.96657 13.0465 4.26489 14.3589 4.87074 15.5396L4.02155 19.6288C4.01098 19.6796 4.01349 19.7323 4.02886 19.7819C4.04422 19.8315 4.07193 19.8764 4.10944 19.9126C4.14694 19.9488 4.19303 19.975 4.24345 19.9888C4.29387 20.0027 4.34698 20.0037 4.39789 19.9917L8.43768 19.0421C9.53244 19.5822 10.7374 19.8662 11.9601 19.8723C13.1827 19.8783 14.3905 19.6063 15.4906 19.0771C16.5908 18.5478 17.554 17.7755 18.3063 16.8193C19.0586 15.8632 19.58 14.7487 19.8304 13.5615C20.0808 12.3743 20.0536 11.146 19.7508 9.97085C19.448 8.79572 18.8778 7.70507 18.0838 6.78268C17.2898 5.86029 16.2933 5.1307 15.1708 4.64997C14.0482 4.16923 12.8296 3.95014 11.6084 4.00952V4.00952Z" stroke="black" stroke-width="1.5" stroke-miterlimit="10" stroke-linecap="round" stroke-linejoin="round"/>
<path d="M15.5987 13.7718L14.1105 13.3125C14.0144 13.2829 13.9127 13.2818 13.8161 13.3092C13.7195 13.3366 13.6316 13.3915 13.5616 13.4682L13.1976 13.8667C13.1227 13.9492 13.0267 14.0059 12.9218 14.0297C12.8169 14.0535 12.7078 14.0434 12.6083 14.0005C11.9043 13.6952 10.4236 12.2799 10.0457 11.5711C9.99257 11.4709 9.9683 11.356 9.97593 11.241C9.98355 11.126 10.0227 11.0161 10.0885 10.925L10.406 10.4832C10.4672 10.3982 10.5058 10.297 10.5178 10.1904C10.5299 10.0837 10.5149 9.97558 10.4745 9.87735L9.84871 8.35513C9.8138 8.2703 9.76097 8.19538 9.6944 8.13635C9.62784 8.07731 9.54939 8.03579 9.46528 8.01507C9.38117 7.99435 9.29372 7.99501 9.20989 8.01699C9.12606 8.03898 9.04815 8.08169 8.98237 8.14172C8.56701 8.51943 8.07446 9.09307 8.01457 9.72887C7.90899 10.8498 8.3561 12.2627 10.0467 13.9589C11.9998 15.919 13.5642 16.1791 14.5826 15.9126C15.1603 15.7622 15.6219 15.1594 15.9131 14.6657C15.9595 14.5875 15.9882 14.4987 15.9971 14.4064C16.0059 14.3141 15.9946 14.2209 15.9641 14.1341C15.9336 14.0473 15.8847 13.9694 15.8212 13.9065C15.7578 13.8436 15.6816 13.7975 15.5987 13.7718V13.7718Z" fill="black"/>
</svg>
