<svg width="95" height="16" viewBox="0 0 95 16" fill="none" xmlns="http://www.w3.org/2000/svg">
<g clip-path="url(#clip0_5601_4669)">
<path d="M75.5923 0.911684C75.4649 0.912248 75.3371 0.916576 75.209 0.923915C73.9663 0.998281 72.9114 1.47575 72.0403 2.34074C71.309 3.06483 70.8056 3.93373 70.45 4.88482C70.0784 5.87897 69.8666 6.90841 69.7547 7.96126C69.6468 8.96324 69.6349 9.9613 69.8466 10.9555C70.0145 11.7304 70.3141 12.4466 70.8615 13.0455C71.6447 13.9026 72.6677 14.208 73.8025 14.1845C74.1381 14.1766 74.3099 14.2784 74.4658 14.5563C74.7455 15.0534 75.0691 15.523 75.3848 16.0162C76.4237 15.5582 77.4506 15.1081 78.4975 14.6463C78.034 14.0983 77.5785 13.566 77.111 13.0181C77.6584 12.4975 78.098 11.93 78.4376 11.2998C79.2887 9.70685 79.6083 7.99258 79.6843 6.21955C79.7242 5.30759 79.6563 4.40738 79.3606 3.53848C78.989 2.45039 78.3417 1.60105 77.2108 1.17442C76.6881 0.977258 76.1444 0.909249 75.5923 0.911684ZM75.165 4.01985C75.188 4.01936 75.2107 4.01962 75.2331 4.02054C75.5494 4.0332 75.7989 4.18364 75.9039 4.46935C75.9114 4.48974 75.9182 4.51079 75.9242 4.53257C76.0201 4.877 76.0521 5.24495 76.0841 5.44065C75.9882 7.01016 75.8403 8.39958 75.4447 9.75382C75.3548 10.0731 75.2227 10.3751 74.9826 10.618C74.9667 10.6342 74.9502 10.6501 74.9332 10.6658C74.5541 11.0203 74.0409 11.0208 73.7198 10.7374C73.7198 10.7373 73.7194 10.7372 73.7194 10.7371C73.709 10.7279 73.699 10.718 73.689 10.7082C73.6857 10.705 73.6821 10.702 73.6789 10.6987C73.6789 10.6986 73.6785 10.6984 73.6785 10.6983C73.6522 10.6717 73.6275 10.6429 73.6046 10.6121C73.6046 10.612 73.6042 10.6119 73.6042 10.6117C73.5697 10.5654 73.5393 10.5144 73.5135 10.4588C73.5134 10.4587 73.5135 10.4587 73.5135 10.4587C73.5084 10.4479 73.504 10.4365 73.4993 10.4254C73.496 10.4174 73.4923 10.4097 73.4892 10.4015C73.4873 10.3965 73.4857 10.3913 73.4839 10.3862C73.4712 10.3516 73.4599 10.3159 73.4507 10.2783C73.3628 9.92211 73.3469 9.54248 73.3628 9.17457C73.3664 9.0934 73.3702 9.0122 73.3745 8.93109C73.4395 7.71476 73.601 6.51307 73.9382 5.33888C74.0341 5.00619 74.2059 4.6891 74.3937 4.39555C74.5575 4.13331 74.8493 4.02374 75.1649 4.01983L75.165 4.01985Z" fill="black"/>
<path d="M45.26 13.9417C44.1532 13.9417 43.0663 13.9417 41.9595 13.9417C42.0194 13.4838 42.0794 13.0415 42.1393 12.5992C42.2512 11.7538 42.3671 10.9084 42.4789 10.063C42.5389 9.6168 42.5988 9.17452 42.6587 8.72833C42.6707 8.63048 42.6827 8.53263 42.6787 8.43478C42.6707 8.23908 42.6308 8.05121 42.423 7.96511C42.1992 7.87509 41.9795 7.88683 41.7837 8.03947C41.504 8.25865 41.448 8.57569 41.4041 8.89272C41.2322 10.1569 41.0644 11.4211 40.8926 12.6854C40.8447 13.0337 40.8047 13.382 40.7567 13.7304C40.7488 13.8008 40.7288 13.8674 40.7168 13.9417C39.6219 13.9417 38.5391 13.9417 37.4243 13.9417C37.4642 13.6325 37.5002 13.3312 37.5401 13.0298C37.696 11.8673 37.8518 10.7088 38.0076 9.54635C38.1755 8.31345 38.3433 7.08055 38.5111 5.85156C38.5431 5.60498 38.5671 5.3584 38.611 5.11574C38.619 5.06094 38.6989 4.97483 38.7469 4.97483C39.7578 4.96701 40.7687 4.96701 41.8156 4.96701C41.7637 5.38189 41.7157 5.7772 41.6678 6.17251C41.6798 6.18034 41.6918 6.18817 41.7038 6.19599C41.7397 6.15294 41.7797 6.10988 41.8156 6.06292C42.4949 5.24098 43.346 4.77131 44.4489 4.78696C45.4158 4.79871 45.9912 5.22924 46.231 6.14511C46.239 6.17251 46.243 6.20382 46.247 6.21556C46.5107 5.94159 46.7544 5.63238 47.0541 5.39363C47.8213 4.77914 48.7124 4.64997 49.6474 4.89655C50.3467 5.08051 50.7542 5.67152 50.7502 6.48563C50.7462 6.96705 50.6823 7.44455 50.6184 7.92205C50.4865 8.97491 50.3387 10.0239 50.1948 11.0767C50.0709 11.9848 49.9551 12.8967 49.8232 13.8047C49.8152 13.8556 49.7313 13.9378 49.6794 13.9378C48.6325 13.9457 47.5896 13.9417 46.5427 13.9417C46.5227 13.9417 46.5067 13.93 46.4787 13.9222C46.5626 13.2881 46.6466 12.658 46.7345 12.0278C46.8743 10.9828 47.0182 9.93775 47.154 8.89272C47.174 8.74007 47.19 8.58351 47.194 8.42696C47.198 8.21952 47.138 8.02773 46.9223 7.94945C46.6985 7.86726 46.4747 7.89074 46.2909 8.05513C46.0831 8.243 46.0032 8.48958 45.9673 8.75182C45.7475 10.3722 45.5357 11.9926 45.316 13.6091C45.3 13.7186 45.28 13.8204 45.26 13.9417Z" fill="black"/>
<path d="M81.1388 1.17043C82.3656 1.17043 83.5763 1.17043 84.795 1.17043C84.6711 2.10586 84.5433 3.02565 84.4194 3.94934C84.2795 4.98263 84.1397 6.01592 83.9998 7.04529C83.884 7.89071 83.7681 8.73613 83.6562 9.58155C83.6362 9.73811 83.6242 9.89466 83.6202 10.0473C83.6122 10.7088 84.0318 10.881 84.5952 10.7675C84.9109 10.7009 85.1107 10.4857 85.1866 10.1921C85.2785 9.83595 85.3384 9.46804 85.3904 9.10013C85.5262 8.14512 85.6501 7.19011 85.782 6.2351C85.9218 5.20964 86.0577 4.18418 86.1935 3.15481C86.2774 2.52857 86.3574 1.90234 86.4413 1.2761C86.4453 1.23696 86.4652 1.20174 86.4772 1.1626C87.684 1.1626 88.8907 1.1626 90.1254 1.1626C90.0894 1.45223 90.0575 1.74186 90.0175 2.02758C89.8617 3.19395 89.7058 4.36423 89.546 5.53059C89.3942 6.66564 89.2303 7.80069 89.0825 8.93574C88.9786 9.74985 88.8427 10.5561 88.5471 11.3311C87.8838 13.0806 86.5731 13.9848 84.7031 14.1531C83.852 14.2313 83.0049 14.2196 82.1698 13.9965C80.7752 13.6208 80.1759 12.7088 79.9961 11.4916C79.8642 10.6031 79.9721 9.72636 80.0919 8.84572C80.2358 7.79286 80.3757 6.74392 80.5155 5.69106C80.6554 4.65777 80.7952 3.6284 80.9351 2.59511C81.011 2.12543 81.0709 1.65576 81.1388 1.17043Z" fill="black"/>
<path d="M4.00774 1.15852C3.31546 1.1595 2.62319 1.16242 1.92992 1.16242H1.72217C1.14678 5.43256 0.575394 9.68318 0 13.9494H3.65209C3.86787 12.3564 4.08369 10.7673 4.29946 9.17826H4.3434C4.65907 10.7634 4.9747 12.3485 5.29037 13.9415H9.16231C8.55495 12.0511 7.95157 10.1763 7.3482 8.28974C7.42013 8.25452 7.48008 8.22714 7.54401 8.20757C8.28324 7.86705 8.93056 7.41308 9.38208 6.72813C9.88555 5.96099 10.0534 5.10772 10.0054 4.21142C9.95346 3.25249 9.54989 2.4697 8.74673 1.90217C7.95157 1.34248 7.03655 1.17414 6.08555 1.16632C5.39228 1.15849 4.70001 1.15754 4.00774 1.15852ZM5.27117 3.82621C5.8443 3.83231 6.23188 4.2197 6.24936 4.82588C6.26135 5.3073 6.20545 5.77312 5.95771 6.19974C5.93303 6.24103 5.90466 6.28022 5.8746 6.31839C5.85945 6.33762 5.84385 6.3565 5.82746 6.37488C5.53852 6.70711 5.05009 6.89707 4.61109 6.82988C4.74295 5.83182 4.8788 4.83762 5.01066 3.84739C5.03928 3.84266 5.06748 3.83912 5.09542 3.83607C5.15565 3.82904 5.2144 3.82561 5.27117 3.82621Z" fill="black"/>
<path d="M64.0684 1.15844C63.8966 1.15453 63.8207 1.19761 63.7607 1.36591C62.3622 5.2838 60.9556 9.20164 59.5531 13.1195C59.4572 13.3935 59.3614 13.6675 59.2615 13.9571C60.3763 13.9571 61.4591 13.9493 62.546 13.961C62.7618 13.9649 62.8537 13.9063 62.9056 13.6949C63.0375 13.1548 63.2013 12.6186 63.3532 12.0902H65.5149V13.9415H69.0831C68.7075 9.67523 68.3319 5.42858 67.9523 1.15844C67.8524 1.15844 67.7765 1.15843 67.7045 1.16234C66.4938 1.16234 65.2791 1.16627 64.0684 1.15844ZM65.3711 4.90408C65.383 4.90408 65.395 4.90416 65.407 4.90806C65.4389 6.42276 65.4709 7.93747 65.4989 9.46783H64.0684C64.5039 7.93356 64.9395 6.41879 65.3711 4.90408Z" fill="black"/>
<path d="M32.1482 4.72457C31.5016 4.73676 30.8356 4.9978 30.34 5.46784C29.7326 6.03928 29.361 6.74384 29.0973 7.51098C28.7457 8.54427 28.5819 9.61272 28.5579 10.6969C28.5419 11.3818 28.6018 12.0629 28.8576 12.7126C29.1692 13.511 29.6967 14.0708 30.6037 14.1843C31.3629 14.2782 32.0382 14.0551 32.6216 13.5776C32.8294 13.4054 33.0252 13.2175 33.245 13.0218C33.201 13.3388 33.1651 13.6324 33.1251 13.9416H36.4456C36.8492 10.9552 37.2487 7.97277 37.6523 4.98249H34.3358C34.2878 5.28778 34.2479 5.58526 34.192 5.91795C34.108 5.80053 34.0521 5.72225 33.9922 5.64397C33.7564 5.33868 33.4807 5.08037 33.121 4.91599C32.8202 4.7801 32.4869 4.71818 32.1482 4.72457ZM33.0755 7.52489C33.1483 7.5231 33.2195 7.53743 33.2856 7.56694C33.4286 7.62878 33.5481 7.76245 33.6086 7.96108C33.6722 8.16684 33.6927 8.38378 33.7106 8.53327C33.7152 8.57018 33.7198 8.60654 33.7245 8.63426C33.6878 9.22025 33.6462 9.72392 33.5166 10.1926C33.4775 10.3387 33.4305 10.4817 33.3728 10.6226C33.2889 10.8144 33.181 11.01 33.0372 11.1666C32.7684 11.4574 32.4116 11.4537 32.202 11.2098C32.1418 11.1413 32.0932 11.0535 32.0622 10.9474C31.9942 10.7204 31.9743 10.4738 31.9783 10.2351C31.9823 9.58928 32.0702 8.95129 32.2979 8.34071C32.3738 8.13718 32.4817 7.92977 32.6216 7.76539C32.7563 7.60638 32.9195 7.52873 33.0755 7.52489Z" fill="black"/>
<path d="M55.7163 4.72705C55.6729 4.72705 55.6295 4.7274 55.586 4.72812C54.1315 4.74769 52.9367 5.30347 52.1216 6.48941C51.0268 8.08239 50.7511 9.86722 51.0587 11.7381C51.1826 12.4778 51.5502 13.1118 52.1776 13.5737C52.7969 14.0277 53.5081 14.1765 54.2593 14.196C56.2852 14.2469 57.9076 13.2293 58.6028 11.468C58.6867 11.2606 58.7467 11.0453 58.8266 10.8065C57.8876 10.8065 56.9965 10.8026 56.1055 10.8104C56.0615 10.8104 56.0055 10.877 55.9775 10.924C55.8617 11.1118 55.7738 11.3232 55.6339 11.4915C55.3942 11.7772 55.0665 11.8633 54.6989 11.7772C54.3552 11.699 54.2035 11.4406 54.1875 11.1314C54.1635 10.74 54.1915 10.3408 54.2114 9.94547C54.2114 9.91025 54.3233 9.85152 54.3833 9.85152C54.8947 9.84369 55.4102 9.84762 55.9217 9.84762H59.0503C59.0663 9.80066 59.0823 9.77327 59.0903 9.74588C59.2461 8.89654 59.33 8.03939 59.1742 7.18223C59.0024 6.23896 58.5389 5.49135 57.6118 5.08038C57.0087 4.81252 56.367 4.72702 55.7163 4.72705ZM55.6613 6.80375C55.9745 6.80522 56.2543 7.01466 56.3292 7.33879C56.3931 7.62451 56.3732 7.92976 56.3812 8.22723C56.3812 8.22727 56.3812 8.22734 56.3812 8.22738C56.3812 8.22863 56.3812 8.22988 56.3812 8.23113C56.3812 8.26244 56.3092 8.32508 56.2693 8.32508H54.3752C54.4212 8.22819 54.4639 8.1335 54.5052 8.04101C54.629 7.76342 54.7399 7.50512 54.8867 7.26441C54.9986 7.09219 55.1984 6.92781 55.3942 6.85344C55.4833 6.81919 55.5736 6.80334 55.6613 6.80375Z" fill="black"/>
<path d="M14.041 4.72822C12.6904 4.73605 11.5557 5.25271 10.7565 6.32905C9.54976 7.94944 9.25006 9.79681 9.58171 11.7342C9.7855 12.9084 10.5048 13.7226 11.7155 14.0474C12.3868 14.2275 13.0741 14.247 13.7533 14.1296C15.6114 13.8087 16.7582 12.7049 17.2896 10.9593C17.3016 10.9123 17.3016 10.8615 17.3096 10.7989C16.4025 10.7989 15.5155 10.7988 14.6324 10.8066C14.5805 10.8106 14.5045 10.8888 14.4805 10.9475C14.3687 11.2176 14.2288 11.4681 13.9811 11.6404C13.4896 11.9809 12.8623 11.8047 12.7264 11.2763C12.6066 10.8106 12.6745 10.337 12.7384 9.85162H17.5893C17.7651 8.88487 17.869 7.93378 17.6532 6.97486C17.4055 5.88677 16.7302 5.16269 15.6193 4.90045C15.1079 4.77912 14.5684 4.72431 14.041 4.72822ZM14.1028 6.81341C14.1872 6.81072 14.2758 6.82128 14.3687 6.84574C14.7403 6.94359 14.8642 7.23714 14.9042 7.56983C14.9281 7.77727 14.9161 7.98465 14.9042 8.19209C14.9032 8.20374 14.8977 8.21739 14.8895 8.23123C14.8894 8.23134 14.8894 8.23142 14.8893 8.23154C14.867 8.2745 14.8142 8.32128 14.7802 8.32128C14.1769 8.32911 13.5735 8.32518 12.9502 8.32518C12.9647 8.27234 12.9794 8.22011 12.9948 8.1684C13.0101 8.11666 13.0259 8.06552 13.0424 8.01497C13.1415 7.71192 13.2659 7.43086 13.4576 7.17844C13.5439 7.06431 13.6411 6.97553 13.7489 6.91447C13.8568 6.85215 13.9749 6.81749 14.1028 6.81341Z" fill="black"/>
<path d="M89.6301 13.9534C90.2055 9.67547 90.7769 5.4249 91.3483 1.1665C92.563 1.1665 93.7658 1.1665 95.0005 1.1665C94.9645 1.45614 94.9325 1.73794 94.8966 2.01584C94.7687 2.97084 94.6409 3.92585 94.509 4.88086C94.3811 5.82413 94.2533 6.76348 94.1254 7.70675C93.9855 8.74004 93.8497 9.77332 93.7098 10.8027C93.574 11.8086 93.4421 12.8145 93.3023 13.8204C93.2943 13.8673 93.2183 13.9456 93.1744 13.9456C92.0036 13.9534 90.8329 13.9534 89.6301 13.9534Z" fill="black"/>
<path d="M23.7554 13.9376C24.3827 9.28785 25.0061 4.6498 25.6334 0C26.7362 0 27.8311 0 28.9539 0C28.9179 0.28572 28.886 0.563612 28.85 0.83759C28.6942 2.00004 28.5383 3.15857 28.3825 4.32102C28.2267 5.4639 28.0708 6.60287 27.915 7.74575C27.7472 8.97865 27.5873 10.2115 27.4235 11.4444C27.3196 12.239 27.2077 13.0296 27.1078 13.8241C27.0919 13.9611 27 13.9494 26.9081 13.9494C25.9171 13.9494 24.9221 13.9494 23.9312 13.9494C23.8712 13.9533 23.8193 13.9455 23.7554 13.9376Z" fill="black"/>
<path d="M23.3389 11.0136C23.283 11.4481 23.231 11.8669 23.1751 12.2818C23.1151 12.7475 23.0512 13.2094 22.9833 13.6751C22.9753 13.7378 22.9233 13.8278 22.8674 13.8513C21.6087 14.3562 20.366 14.3992 19.2072 13.6047C18.532 13.1428 18.1763 12.4383 18.0485 11.6634C17.7568 9.83944 18.0285 8.10556 19.0914 6.5478C19.7347 5.60061 20.6258 4.96655 21.8005 4.78259C22.6037 4.65735 23.3908 4.70823 24.1421 5.08006C24.0182 5.99201 23.8943 6.89614 23.7744 7.80418C23.5986 7.74938 23.4468 7.68676 23.287 7.65936C22.7995 7.57326 22.4159 7.76113 22.1561 8.15252C21.6806 8.86878 21.5568 9.66331 21.7086 10.4892C21.8045 11.0136 22.248 11.268 22.7835 11.1585C22.9633 11.1232 23.1391 11.0684 23.3389 11.0136Z" fill="black"/>
</g>
<defs>
<clipPath id="clip0_5601_4669">
<rect width="95" height="16" fill="white"/>
</clipPath>
</defs>
</svg>
